<?xml version="1.0" encoding="utf-8"?>
<svg viewBox="0 0 175 91" width="175" height="91" fill="none" xmlns="http://www.w3.org/2000/svg">
  <path d="M 139.927 51.2 L 139.927 49.081 L 129.991 49.081 L 129.991 27.435 L 127.807 27.435 L 127.807 51.2 L 139.927 51.2 Z M 115.627 43.518 L 108.354 43.518 C 108.697 42.426 110.165 37.236 110.471 36.178 C 110.677 35.494 111.771 31.33 111.94 30.647 L 112.077 30.647 L 113.544 36.178 L 115.627 43.518 Z M 120.027 51.2 L 113.1 27.435 L 110.949 27.435 L 104.019 51.2 L 106.273 51.2 L 107.879 45.5 L 116.141 45.5 L 117.741 51.2 L 120.027 51.2 Z M 95.557 46.01 C 95.355 47.001 94.801 47.886 93.998 48.501 C 93.195 49.116 92.197 49.419 91.187 49.356 C 90.558 49.374 89.932 49.26 89.349 49.022 C 88.766 48.784 88.239 48.427 87.802 47.974 C 87.365 47.521 87.028 46.982 86.811 46.391 C 86.594 45.8 86.503 45.17 86.543 44.542 L 86.543 34.127 C 86.504 33.501 86.596 32.873 86.814 32.284 C 87.031 31.696 87.37 31.159 87.807 30.709 C 88.244 30.259 88.771 29.906 89.353 29.671 C 89.935 29.437 90.56 29.327 91.187 29.348 C 92.18 29.269 93.169 29.555 93.967 30.152 C 94.765 30.749 95.318 31.616 95.523 32.591 L 97.64 31.806 C 96.855 28.906 94.328 27.266 91.187 27.266 C 86.92 27.266 84.359 30.166 84.359 34.166 L 84.359 44.473 C 84.359 48.573 86.988 51.402 91.187 51.402 C 94.328 51.402 96.923 49.802 97.64 46.76 L 95.557 46.01 Z M 74.021 27.435 L 71.8 27.435 L 71.8 51.2 L 74.019 51.2 L 74.021 27.435 Z M 61.271 43.618 C 61.284 44.523 61.146 45.423 60.862 46.282 C 60.213 48.159 58.677 49.182 56.15 49.182 L 52.05 49.182 L 52.05 29.45 L 56.15 29.45 C 58.642 29.45 60.316 30.474 60.895 32.386 C 61.18 33.408 61.306 34.467 61.271 35.527 L 61.271 43.618 Z M 49.835 27.435 L 49.835 51.2 L 55.945 51.2 C 59.087 51.2 61.716 50.313 62.91 47.238 C 63.38 45.539 63.565 43.774 63.457 42.015 L 63.457 38.089 C 63.457 35.117 63.423 32.727 62.876 31.189 C 61.852 28.629 59.701 27.434 56.491 27.434 L 49.835 27.435 Z M 41.684 51.2 L 41.684 49.081 L 31.511 49.081 L 31.511 40.1 L 40.25 40.1 L 40.25 38.121 L 31.511 38.121 L 31.511 29.484 L 41.684 29.484 L 41.684 27.435 L 29.324 27.435 L 29.324 51.2 L 41.684 51.2 Z M 18.844 51.2 L 18.844 27.435 L 16.659 27.435 L 12.8 36.346 L 9.967 43.038 L 9.9 43.038 L 7.133 36.414 C 6.485 34.914 3.856 28.938 3.242 27.435 L 1.023 27.435 L 1.023 51.2 L 3.173 51.2 L 3.173 32.932 L 3.31 32.9 L 5.939 39.285 C 6.451 40.479 8.639 45.396 9.114 46.557 L 10.684 46.557 L 13.859 39.357 L 16.559 32.87 L 16.659 32.837 L 16.659 51.2 L 18.844 51.2 Z" fill="#00567d"/>
  <path d="M 174.468 26.696 L 150 26.696 L 150 51.402 L 174.468 51.402 L 174.468 26.696 Z" fill="#db320d"/>
  <path d="M 159.916 47.897 L 159.916 41.981 L 154 41.981 L 154 36.617 L 159.916 36.617 L 159.916 30.697 L 165.28 30.697 L 165.28 36.613 L 171.195 36.613 L 171.195 41.977 L 165.28 41.977 L 165.28 47.893 L 159.916 47.897 Z" fill="#ffffff"/>
</svg>