<svg width="114" height="53" viewBox="0 0 114 53" fill="none" xmlns="http://www.w3.org/2000/svg">
<path d="M48.046 38.82C47.5944 38.8351 47.155 38.6716 46.823 38.365C46.6562 38.2003 46.5257 38.0027 46.4396 37.7847C46.3535 37.5667 46.3138 37.3332 46.323 37.099V33.731H45.268V32.699H46.325V30.855H47.455V32.699H48.93V33.731H47.456V36.731C47.4389 36.8761 47.4508 37.0232 47.4912 37.1636C47.5315 37.3041 47.5995 37.4351 47.691 37.549C47.8327 37.6867 48.0224 37.7638 48.22 37.764C48.3089 37.7642 48.3976 37.7538 48.484 37.733C48.5659 37.7139 48.6459 37.6875 48.723 37.654L49.079 38.662C48.7464 38.774 48.3969 38.8275 48.046 38.82V38.82Z" fill="#fff"/>
<path d="M52.654 38.918C52.2456 38.9303 51.8393 38.8555 51.462 38.6986C51.0848 38.5417 50.7453 38.3063 50.466 38.008C49.8861 37.3854 49.5769 36.5583 49.606 35.708C49.5782 34.8649 49.8774 34.0437 50.441 33.416C50.7171 33.1305 51.0471 32.9025 51.4118 32.7453C51.7766 32.5881 52.1689 32.5047 52.5661 32.5001C52.9633 32.4954 53.3574 32.5696 53.7257 32.7182C54.0941 32.8668 54.4293 33.087 54.712 33.366C55.2756 34.0446 55.5591 34.9126 55.505 35.793L55.493 35.916H50.762C50.7584 36.1812 50.8088 36.4444 50.9101 36.6895C51.0113 36.9346 51.1613 37.1566 51.351 37.342C51.5677 37.5532 51.8316 37.7098 52.1209 37.7988C52.4101 37.8878 52.7164 37.9066 53.0143 37.8537C53.3123 37.8009 53.5934 37.6778 53.8343 37.4948C54.0753 37.3117 54.2692 37.0739 54.4 36.801L55.408 37.294C55.1508 37.7874 54.7617 38.1997 54.284 38.485C53.7908 38.7765 53.2268 38.9263 52.654 38.918ZM50.848 34.985H54.301C54.2891 34.787 54.2379 34.5933 54.1503 34.4152C54.0628 34.2372 53.9406 34.0783 53.791 33.948C53.4462 33.6595 53.005 33.5123 52.556 33.536C52.1535 33.5272 51.7618 33.6671 51.456 33.929C51.1417 34.2037 50.9278 34.5752 50.848 34.985V34.985Z" fill="#fff"/>
<path d="M59.352 38.918C58.9382 38.9295 58.5266 38.8545 58.1434 38.6978C57.7603 38.5411 57.4141 38.3062 57.127 38.008C56.5452 37.3858 56.2319 36.5595 56.255 35.708C56.2405 35.2859 56.3101 34.8652 56.4598 34.4703C56.6095 34.0755 56.8363 33.7143 57.127 33.408C57.4141 33.1098 57.7603 32.8748 58.1434 32.7182C58.5266 32.5615 58.9382 32.4865 59.352 32.498C59.917 32.4808 60.4736 32.6377 60.9464 32.9476C61.4191 33.2574 61.7852 33.7051 61.995 34.23L60.963 34.661C60.8409 34.3167 60.6112 34.0209 60.3079 33.8174C60.0046 33.6138 59.6438 33.5134 59.279 33.531C59.0234 33.5312 58.7709 33.5874 58.5394 33.6957C58.3079 33.8041 58.1029 33.9618 57.939 34.158C57.5803 34.5949 57.3843 35.1427 57.3843 35.708C57.3843 36.2733 57.5803 36.821 57.939 37.258C58.1031 37.4539 58.3081 37.6115 58.5396 37.7199C58.771 37.8282 59.0234 37.8845 59.279 37.885C59.6519 37.9048 60.0214 37.8061 60.3349 37.6032C60.6483 37.4002 60.8895 37.1033 61.024 36.755L62.032 37.184C61.8269 37.7057 61.4644 38.1506 60.995 38.457C60.5048 38.7694 59.9331 38.9298 59.352 38.918V38.918Z" fill="#fff"/>
<path d="M63.015 29.922H64.145V32.699L64.095 33.535H64.145C64.3372 33.2214 64.6114 32.9662 64.938 32.797C65.2778 32.6068 65.6606 32.507 66.05 32.507C66.3619 32.4873 66.6745 32.5334 66.9674 32.6425C67.2603 32.7515 67.527 32.9211 67.75 33.14C68.1761 33.6393 68.3913 34.2849 68.35 34.94V38.726H67.22V35.157C67.22 34.0763 66.7407 33.5357 65.782 33.535C65.5575 33.5339 65.3358 33.585 65.1344 33.684C64.933 33.7831 64.7572 33.9275 64.621 34.106C64.3085 34.4796 64.1406 34.953 64.148 35.44V38.722H63.018L63.015 29.922Z" fill="#fff"/>
<path d="M69.676 32.699H70.758V33.535H70.806C70.9982 33.2214 71.2724 32.9662 71.599 32.797C71.9387 32.6053 72.322 32.5041 72.712 32.503C73.024 32.4831 73.3366 32.5291 73.6295 32.6382C73.9225 32.7473 74.1891 32.9169 74.412 33.136C74.8386 33.6351 75.0538 34.2808 75.012 34.936V38.722H73.882V35.008C73.9057 34.8075 73.8833 34.6043 73.8167 34.4137C73.7501 34.2231 73.6409 34.0502 73.4975 33.9081C73.354 33.7661 73.1801 33.6585 72.9889 33.5937C72.7977 33.5289 72.5943 33.5085 72.394 33.534C72.1764 33.532 71.9612 33.5802 71.7652 33.6749C71.5692 33.7696 71.3977 33.9082 71.264 34.08C70.9595 34.4472 70.798 34.9121 70.809 35.389V38.721H69.679L69.676 32.699Z" fill="#fff"/>
<path d="M75.993 35.708C75.9785 35.2859 76.0482 34.8652 76.1979 34.4704C76.3476 34.0755 76.5744 33.7144 76.865 33.408C77.1521 33.1098 77.4983 32.8749 77.8815 32.7182C78.2646 32.5615 78.6762 32.4865 79.09 32.498C79.502 32.4858 79.9119 32.5605 80.293 32.7173C80.6741 32.8741 81.018 33.1094 81.302 33.408C81.8725 34.0382 82.1885 34.8579 82.1885 35.708C82.1885 36.5581 81.8725 37.3778 81.302 38.008C81.018 38.3066 80.6741 38.5419 80.293 38.6987C79.9119 38.8555 79.502 38.9302 79.09 38.918C78.6762 38.9295 78.2646 38.8545 77.8815 38.6978C77.4983 38.5411 77.1521 38.3062 76.865 38.008C76.5745 37.7016 76.3477 37.3404 76.198 36.9456C76.0483 36.5507 75.9786 36.13 75.993 35.708V35.708ZM77.123 35.708C77.0979 36.2863 77.3012 36.8513 77.689 37.281C77.8694 37.4709 78.0866 37.6221 78.3272 37.7254C78.5679 37.8288 78.8271 37.8821 79.089 37.8821C79.3509 37.8821 79.6101 37.8288 79.8508 37.7254C80.0915 37.6221 80.3086 37.4709 80.489 37.281C80.8546 36.8407 81.0548 36.2863 81.0548 35.714C81.0548 35.1417 80.8546 34.5873 80.489 34.147C80.311 33.953 80.0947 33.7981 79.8537 33.6922C79.6127 33.5862 79.3523 33.5315 79.089 33.5315C78.8258 33.5315 78.5654 33.5862 78.3244 33.6922C78.0834 33.7981 77.867 33.953 77.689 34.147C77.3025 34.5727 77.0991 35.1335 77.123 35.708V35.708Z" fill="#fff"/>
<path d="M84.288 29.922V38.722H83.158V29.922H84.288Z" fill="#fff"/>
<path d="M85.259 35.708C85.2448 35.2858 85.3148 34.865 85.4649 34.4701C85.6149 34.0752 85.842 33.7142 86.133 33.408C86.4199 33.1098 86.7659 32.8748 87.1489 32.7181C87.5319 32.5614 87.9434 32.4864 88.357 32.498C88.7692 32.4856 89.1795 32.5603 89.561 32.7171C89.9424 32.8739 90.2866 33.1093 90.571 33.408C91.1415 34.0381 91.4575 34.8579 91.4575 35.708C91.4575 36.558 91.1415 37.3778 90.571 38.008C90.2866 38.3066 89.9424 38.542 89.561 38.6988C89.1795 38.8556 88.7692 38.9303 88.357 38.918C87.9434 38.9295 87.5319 38.8545 87.1489 38.6978C86.7659 38.5411 86.4199 38.3062 86.133 38.008C85.8421 37.7017 85.6151 37.3406 85.465 36.9457C85.315 36.5509 85.2449 36.1301 85.259 35.708ZM86.391 35.708C86.3662 36.286 86.569 36.8508 86.956 37.281C87.1365 37.4706 87.3537 37.6216 87.5944 37.7247C87.835 37.8279 88.0942 37.8811 88.356 37.8811C88.6178 37.8811 88.8769 37.8279 89.1176 37.7247C89.3583 37.6216 89.5755 37.4706 89.756 37.281C90.1209 36.8403 90.3205 36.2861 90.3205 35.714C90.3205 35.1418 90.1209 34.5876 89.756 34.147C89.5775 33.9538 89.361 33.7996 89.1201 33.6942C88.8791 33.5888 88.619 33.5343 88.356 33.5343C88.093 33.5343 87.8328 33.5888 87.5919 33.6942C87.351 33.7996 87.1345 33.9538 86.956 34.147C86.5702 34.573 86.3673 35.1337 86.391 35.708Z" fill="#fff"/>
<path d="M95.153 41.572C94.8328 41.5746 94.5139 41.5312 94.206 41.443C93.9215 41.3621 93.6503 41.2401 93.401 41.081C93.1664 40.931 92.9572 40.7446 92.781 40.529C92.6099 40.3157 92.4769 40.0745 92.388 39.816L93.458 39.373C93.5748 39.717 93.7988 40.0145 94.097 40.222C94.4072 40.4364 94.777 40.548 95.154 40.541C95.4192 40.5563 95.6845 40.515 95.9325 40.4198C96.1804 40.3246 96.4052 40.1778 96.592 39.989C96.9551 39.5667 97.1401 39.02 97.108 38.464V37.887H97.058C96.8406 38.2105 96.542 38.4713 96.192 38.643C95.8244 38.8284 95.4178 38.9233 95.006 38.92C94.6216 38.9217 94.2414 38.8402 93.8915 38.681C93.5416 38.5219 93.2303 38.2888 92.979 37.998C92.422 37.3687 92.1234 36.5521 92.143 35.712C92.1224 34.8752 92.4213 34.0621 92.979 33.438C93.2287 33.1444 93.5394 32.9088 93.8895 32.7476C94.2396 32.5865 94.6206 32.5037 95.006 32.505C95.4178 32.5016 95.8244 32.5966 96.192 32.782C96.5422 32.9533 96.841 33.2141 97.058 33.538H97.108V32.702H98.19V38.466C98.2135 38.881 98.1525 39.2965 98.0109 39.6874C97.8693 40.0782 97.6499 40.4363 97.366 40.74C97.073 41.0217 96.7257 41.2408 96.3452 41.3838C95.9647 41.5269 95.5591 41.5909 95.153 41.572V41.572ZM95.19 37.886C95.4477 37.8938 95.7039 37.844 95.9399 37.7402C96.1758 37.6364 96.3857 37.4812 96.554 37.286C96.9113 36.8418 97.1061 36.289 97.1061 35.719C97.1061 35.149 96.9113 34.5961 96.554 34.152C96.3867 33.9545 96.1774 33.7969 95.9415 33.6907C95.7055 33.5845 95.4488 33.5323 95.19 33.538C94.9314 33.534 94.6751 33.5869 94.4392 33.693C94.2033 33.7991 93.9936 33.9558 93.825 34.152C93.4488 34.5829 93.2513 35.1413 93.273 35.713C93.2487 36.285 93.4465 36.8443 93.825 37.274C93.9939 37.4699 94.2038 37.6263 94.4399 37.732C94.676 37.8378 94.9324 37.8904 95.191 37.886H95.19Z" fill="#fff"/>
<path d="M101.027 30.622C101.027 30.8071 100.963 30.9865 100.845 31.1295C100.727 31.2725 100.564 31.3703 100.382 31.4062C100.201 31.4421 100.012 31.4139 99.8489 31.3264C99.6858 31.2389 99.558 31.0975 99.4874 30.9263C99.4168 30.7552 99.4078 30.5649 99.4619 30.3878C99.5159 30.2107 99.6297 30.0579 99.7838 29.9553C99.938 29.8528 100.123 29.8068 100.307 29.8254C100.491 29.8439 100.663 29.9258 100.794 30.057C100.869 30.1303 100.929 30.2182 100.969 30.3154C101.009 30.4126 101.029 30.5169 101.027 30.622V30.622ZM100.797 32.699V38.722H99.667V32.699H100.797Z" fill="#fff"/>
<path d="M104.911 38.918C104.503 38.9303 104.096 38.8555 103.719 38.6986C103.342 38.5417 103.002 38.3063 102.723 38.008C102.143 37.3854 101.834 36.5583 101.863 35.708C101.835 34.8649 102.134 34.0437 102.698 33.416C102.974 33.1305 103.304 32.9025 103.669 32.7453C104.034 32.5881 104.426 32.5047 104.823 32.5001C105.22 32.4954 105.614 32.5696 105.983 32.7182C106.351 32.8668 106.686 33.087 106.969 33.366C107.533 34.0446 107.816 34.9126 107.762 35.793L107.75 35.916H103.019C103.015 36.1812 103.066 36.4444 103.167 36.6895C103.268 36.9346 103.418 37.1566 103.608 37.342C103.825 37.5532 104.089 37.7098 104.378 37.7988C104.667 37.8878 104.973 37.9066 105.271 37.8537C105.569 37.8009 105.85 37.6778 106.091 37.4948C106.332 37.3117 106.526 37.0739 106.657 36.801L107.665 37.294C107.408 37.7874 107.019 38.1997 106.541 38.485C106.048 38.7765 105.484 38.9263 104.911 38.918ZM103.104 34.985H106.558C106.546 34.787 106.494 34.5933 106.406 34.4153C106.319 34.2373 106.197 34.0785 106.047 33.948C105.702 33.6595 105.261 33.5123 104.812 33.536C104.409 33.5274 104.018 33.6673 103.712 33.929C103.398 34.2038 103.184 34.5754 103.105 34.985H103.104Z" fill="#fff"/>
<path d="M113.465 37.051C113.464 37.3109 113.401 37.5669 113.281 37.7975C113.161 38.0282 112.988 38.2268 112.776 38.377C112.278 38.7506 111.666 38.9416 111.044 38.918C110.475 38.9295 109.916 38.7643 109.444 38.445C108.995 38.1413 108.651 37.705 108.461 37.197L109.469 36.768C109.599 37.1045 109.823 37.3965 110.114 37.609C110.384 37.8051 110.709 37.9102 111.042 37.909C111.358 37.9195 111.671 37.8379 111.942 37.674C112.045 37.6217 112.133 37.5432 112.197 37.4463C112.26 37.3494 112.297 37.2376 112.304 37.122C112.304 36.7373 112.009 36.4543 111.419 36.273L110.385 36.015C109.214 35.721 108.628 35.156 108.628 34.32C108.622 34.0616 108.68 33.8057 108.797 33.5752C108.914 33.3447 109.086 33.1467 109.298 32.999C109.764 32.6951 110.305 32.5237 110.861 32.5031C111.417 32.4825 111.968 32.6134 112.456 32.882C112.862 33.1109 113.179 33.4703 113.356 33.902L112.347 34.32C112.233 34.0637 112.036 33.8526 111.789 33.72C111.524 33.5751 111.225 33.5011 110.923 33.505C110.643 33.5005 110.367 33.5773 110.13 33.726C110.029 33.7767 109.943 33.8536 109.881 33.9487C109.819 34.0438 109.784 34.1537 109.779 34.267C109.779 34.611 110.103 34.8566 110.751 35.004L111.661 35.237C112.864 35.5363 113.465 36.141 113.465 37.051Z" fill="#fff"/>
<path d="M45.241 13.898H47.829V17.871L47.671 19.629H47.829C48.1229 19.1518 48.5367 18.7598 49.029 18.492C49.5623 18.1924 50.1654 18.0392 50.777 18.048C51.2939 18.0061 51.8134 18.0843 52.2951 18.2763C52.7768 18.4683 53.2077 18.769 53.554 19.155C54.1963 20.0278 54.5145 21.0971 54.454 22.179V28.049H51.864V22.498C51.9033 21.946 51.7342 21.3994 51.39 20.966C51.2203 20.7881 51.0141 20.6492 50.7855 20.5587C50.5569 20.4682 50.3114 20.4284 50.066 20.442C49.7355 20.4358 49.4089 20.5139 49.117 20.669C48.8403 20.8221 48.6012 21.0349 48.417 21.292C48.2191 21.5703 48.0722 21.8814 47.983 22.211C47.8817 22.5746 47.8315 22.9506 47.834 23.328V28.052H45.241V13.898Z" fill="#fff"/>
<path d="M65.755 25.717C65.3187 26.495 64.6974 27.1534 63.946 27.634C63.1111 28.1427 62.146 28.3967 61.169 28.365C60.4686 28.3723 59.7737 28.2415 59.124 27.98C58.5136 27.7346 57.9591 27.3683 57.4939 26.9031C57.0287 26.4379 56.6624 25.8834 56.417 25.273C56.1542 24.6163 56.0231 23.9143 56.031 23.207C56.0276 22.5267 56.1553 21.8521 56.407 21.22C56.8884 19.9891 57.8365 18.9982 59.045 18.463C59.6828 18.1815 60.3738 18.0403 61.071 18.049C61.7815 18.0362 62.4873 18.1672 63.146 18.434C63.7259 18.6738 64.2456 19.0389 64.668 19.503C65.0839 19.9711 65.3997 20.5194 65.596 21.114C65.8117 21.7637 65.9184 22.4445 65.912 23.129V23.367C65.8991 23.4386 65.8924 23.5112 65.892 23.584C65.8785 23.6562 65.8724 23.7296 65.874 23.803H58.581C58.621 24.1603 58.7319 24.506 58.907 24.82C59.0632 25.0945 59.271 25.3363 59.519 25.532C59.757 25.7194 60.0285 25.8599 60.319 25.946C60.6079 26.0316 60.9076 26.0751 61.209 26.075C61.7301 26.0953 62.2448 25.9535 62.682 25.669C63.0637 25.4069 63.3782 25.0585 63.6 24.652L65.755 25.717ZM63.403 21.963C63.3811 21.7636 63.3242 21.5696 63.235 21.39C63.1269 21.1675 62.9792 20.9665 62.799 20.797C62.5926 20.6023 62.3514 20.4483 62.088 20.343C61.7652 20.2165 61.4206 20.1553 61.074 20.163C60.5471 20.1545 60.0324 20.3216 59.611 20.638C59.1777 20.9703 58.8651 21.4353 58.721 21.962L63.403 21.963Z" fill="#fff"/>
<path d="M67.573 28.05V13.898H70.163V28.05H67.573Z" fill="#fff"/>
<path d="M72.375 28.05V13.898H74.965V28.05H72.375Z" fill="#fff"/>
<path d="M86.251 25.717C85.8148 26.4947 85.1938 27.1531 84.443 27.634C83.6081 28.1425 82.643 28.3965 81.666 28.365C80.9653 28.3723 80.2701 28.2415 79.62 27.98C79.0092 27.7348 78.4543 27.3686 77.9888 26.9034C77.5232 26.4382 77.1566 25.8836 76.911 25.273C76.6483 24.6163 76.5171 23.9143 76.525 23.207C76.5216 22.5267 76.6493 21.8521 76.901 21.22C77.3824 19.9891 78.3305 18.9982 79.539 18.463C80.1769 18.1815 80.8678 18.0403 81.565 18.049C82.2755 18.0362 82.9813 18.1672 83.64 18.434C84.2203 18.6732 84.7401 19.0383 85.162 19.503C85.5779 19.9711 85.8937 20.5194 86.09 21.114C86.3057 21.7637 86.4125 22.4445 86.406 23.129V23.367C86.394 23.4387 86.3877 23.5113 86.387 23.584C86.373 23.6555 86.3663 23.7282 86.367 23.801H79.075C79.115 24.1583 79.2259 24.504 79.401 24.818C79.5576 25.0926 79.7658 25.3343 80.014 25.53C80.2517 25.7179 80.5233 25.8584 80.814 25.944C81.1022 26.0296 81.4013 26.0731 81.702 26.073C82.2232 26.0934 82.7379 25.9516 83.175 25.667C83.5567 25.4046 83.8714 25.0562 84.094 24.65L86.251 25.717ZM83.898 21.963C83.8763 21.7635 83.8191 21.5694 83.729 21.39C83.6216 21.1676 83.4746 20.9666 83.295 20.797C83.0882 20.6024 82.8467 20.4484 82.583 20.343C82.2592 20.2164 81.9135 20.1556 81.566 20.164C81.0391 20.1555 80.5244 20.3226 80.103 20.639C79.6698 20.971 79.3578 21.4362 79.215 21.963H83.898Z" fill="#fff"/>
<path d="M90.498 19.63H90.657C90.9575 19.1445 91.3794 18.7458 91.881 18.473C92.4215 18.1837 93.027 18.0378 93.64 18.049C94.1882 18.0389 94.7327 18.141 95.24 18.349C95.6819 18.5319 96.0723 18.8203 96.377 19.189C96.6851 19.5735 96.9139 20.0154 97.05 20.489C97.2065 21.0385 97.2829 21.6077 97.277 22.179V28.049H94.691V22.496C94.7359 21.9389 94.5704 21.3851 94.227 20.944C94.0497 20.7694 93.8372 20.6345 93.6038 20.5483C93.3703 20.4621 93.1212 20.4265 92.873 20.444C92.5456 20.4371 92.222 20.5153 91.934 20.671C91.6626 20.8239 91.4271 21.0328 91.243 21.284C91.0435 21.5583 90.8958 21.8667 90.807 22.194C90.7066 22.5578 90.6568 22.9337 90.659 23.311V28.055H88.069V18.365H90.5L90.498 19.63Z" fill="#fff"/>
<path d="M100.851 17.061C100.63 17.0615 100.411 17.0177 100.208 16.932C100.008 16.8501 99.8265 16.729 99.674 16.576C99.5232 16.4255 99.4024 16.2476 99.318 16.052C99.1486 15.6352 99.1486 15.1688 99.318 14.752C99.4024 14.5564 99.5232 14.3785 99.674 14.228C99.9887 13.9179 100.413 13.7441 100.854 13.7441C101.296 13.7441 101.72 13.9179 102.035 14.228C102.192 14.381 102.316 14.5639 102.401 14.7657C102.486 14.9676 102.53 15.1845 102.53 15.4035C102.53 15.6225 102.486 15.8394 102.401 16.0413C102.316 16.2431 102.192 16.426 102.035 16.579C101.88 16.735 101.696 16.8582 101.492 16.941C101.289 17.0238 101.071 17.0646 100.851 17.061V17.061ZM99.57 28.05V18.367H102.16V28.051L99.57 28.05Z" fill="#fff"/>
<path d="M113.622 25.579C113.21 26.385 112.601 27.0745 111.853 27.584C111.01 28.1284 110.021 28.4007 109.018 28.364C108.311 28.3722 107.609 28.2414 106.952 27.979C106.344 27.7339 105.793 27.3674 105.332 26.902C104.872 26.4344 104.507 25.8809 104.26 25.273C103.997 24.6162 103.866 23.9143 103.874 23.207C103.866 22.4968 103.998 21.792 104.26 21.132C104.5 20.5223 104.862 19.9682 105.325 19.5039C105.787 19.0395 106.339 18.6747 106.948 18.432C107.605 18.1696 108.307 18.0388 109.014 18.047C110.013 18.0131 110.998 18.2819 111.841 18.818C112.583 19.307 113.167 20.0021 113.52 20.818L111.149 21.806C110.957 21.3969 110.66 21.046 110.289 20.789C109.895 20.5459 109.438 20.4255 108.975 20.443C108.642 20.4413 108.312 20.5094 108.007 20.643C107.707 20.7725 107.435 20.9601 107.207 21.195C106.969 21.4454 106.784 21.7413 106.664 22.065C106.401 22.8067 106.401 23.6163 106.664 24.358C106.784 24.6818 106.969 24.9778 107.207 25.228C107.435 25.4631 107.707 25.6511 108.007 25.781C108.312 25.9141 108.642 25.9822 108.975 25.981C109.459 25.9965 109.937 25.8692 110.349 25.615C110.741 25.3528 111.053 24.9869 111.249 24.558L113.622 25.579Z" fill="#fff"/>
<path d="M14.38 13.917V39.053H40.065V13.917H14.38ZM22.98 32.767C22.98 32.8488 22.9639 32.9298 22.9326 33.0054C22.9013 33.081 22.8554 33.1497 22.7975 33.2075C22.7397 33.2654 22.671 33.3113 22.5954 33.3426C22.5198 33.3739 22.4388 33.39 22.357 33.39H20.796C20.7142 33.39 20.6332 33.3739 20.5576 33.3426C20.482 33.3113 20.4133 33.2654 20.3555 33.2075C20.2976 33.1497 20.2517 33.081 20.2204 33.0054C20.1891 32.9298 20.173 32.8488 20.173 32.767V20.201C20.173 20.1192 20.1891 20.0382 20.2204 19.9626C20.2517 19.887 20.2976 19.8183 20.3555 19.7605C20.4133 19.7026 20.482 19.6567 20.5576 19.6254C20.6332 19.5941 20.7142 19.578 20.796 19.578H22.353C22.5182 19.578 22.6767 19.6436 22.7935 19.7605C22.9104 19.8773 22.976 20.0358 22.976 20.201L22.98 32.767ZM34.28 32.767C34.2803 32.8489 34.2643 32.93 34.2331 33.0057C34.2019 33.0814 34.156 33.1502 34.0981 33.2081C34.0402 33.266 33.9714 33.3119 33.8957 33.3431C33.82 33.3743 33.7389 33.3903 33.657 33.39H32.091C31.9258 33.39 31.7673 33.3244 31.6505 33.2075C31.5336 33.0907 31.468 32.9322 31.468 32.767V28.687C31.468 28.4748 31.3837 28.2713 31.2337 28.1213C31.0837 27.9713 30.8802 27.887 30.668 27.887H26.503C26.4212 27.887 26.3403 27.8709 26.2647 27.8396C26.1892 27.8082 26.1206 27.7623 26.0628 27.7045C26.0051 27.6466 25.9593 27.5779 25.9281 27.5023C25.8969 27.4267 25.8809 27.3458 25.881 27.264V25.701C25.8809 25.6192 25.8969 25.5382 25.9281 25.4627C25.9593 25.3871 26.0051 25.3184 26.0628 25.2605C26.1206 25.2027 26.1892 25.1568 26.2647 25.1254C26.3403 25.0941 26.4212 25.078 26.503 25.078H30.703C30.8036 25.0781 30.9033 25.0584 30.9963 25.02C31.0893 24.9815 31.1738 24.9251 31.2449 24.8539C31.3161 24.7828 31.3725 24.6983 31.411 24.6053C31.4494 24.5123 31.4691 24.4126 31.469 24.312V20.201C31.469 20.0358 31.5346 19.8773 31.6515 19.7605C31.7683 19.6436 31.9268 19.578 32.092 19.578H33.649C33.7322 19.5779 33.8146 19.5949 33.891 19.628C34.0038 19.6755 34.1 19.7552 34.1678 19.8571C34.2355 19.959 34.2718 20.0786 34.272 20.201L34.28 32.767Z" fill="#fff"/>
<path d="M16.041 47.091L16.802 49.442L14.798 47.921L12.793 49.442L13.554 47.022L11.548 45.639H14.041L14.802 43.288L15.563 45.639H17.983L16.041 47.091Z" fill="#fff"/>
<path d="M27.66 50.205L28.421 52.556L26.416 51.035L24.41 52.485L25.171 50.134L23.166 48.751L25.655 48.682L26.416 46.4L27.177 48.682H29.596L27.66 50.205Z" fill="#fff"/>
<path d="M39.208 47.091L40.038 49.442L38.032 47.921L35.958 49.442L36.719 47.022L34.783 45.639H37.203L38.033 43.288L38.724 45.639H41.144L39.208 47.091Z" fill="#fff"/>
<path d="M7.537 38.655L8.367 41.006L6.362 39.485L4.287 40.937L5.048 38.586L3.112 37.134H5.532L6.362 34.852L7.053 37.134H9.474L7.537 38.655Z" fill="#fff"/>
<path d="M4.426 27.037L5.256 29.388L3.25 27.867L1.176 29.319L1.937 26.968L0 25.585L2.42 25.516L3.25 23.234L3.941 25.516H6.361L4.426 27.037Z" fill="#fff"/>
<path d="M16.041 6.98402L16.803 9.33102L14.798 7.81402L12.793 9.33102L13.554 6.98002L11.548 5.53102H14.041L14.802 3.24902L15.559 5.53102H17.979L16.041 6.98402Z" fill="#fff"/>
<path d="M7.537 15.42L8.367 17.771L6.362 16.25L4.287 17.768L5.048 15.417L3.112 13.968H5.532L6.362 11.686L7.053 13.968H9.474L7.537 15.42Z" fill="#fff"/>
<path d="M27.66 3.8L28.421 6.151L26.415 4.633L24.41 6.085L25.171 3.734L23.165 2.351L25.654 2.282L26.415 0L27.176 2.282H29.596L27.66 3.8Z" fill="#fff"/>
<path d="M39.208 6.98402L40.038 9.33502L38.032 7.81402L35.958 9.33102L36.719 6.98002L34.782 5.53102H37.202L38.032 3.24902L38.724 5.53102H41.144L39.208 6.98402Z" fill="#fff"/>
</svg>